<svg viewBox="0 0 230.64 80.059" overflow="visible" id="svg1771776093_6491"><g><path d="M 107.136 47.161 C 108.411 45.569 109.086 43.616 109.086 41.508 C 109.086 36.484 105.15 32.548 100.126 32.548 C 95.102 32.548 91.167 36.484 91.167 41.508 C 91.167 46.531 95.102 50.467 100.126 50.467 C 102.098 50.467 103.976 49.851 105.563 48.685 L 107.16 50.162 L 107.174 50.175 L 110.402 50.175 L 110.311 50.09 L 107.139 47.158 Z M 102.541 42.981 L 101.157 44.535 L 101.125 44.571 L 101.161 44.603 L 103.86 47.11 C 102.761 47.844 101.471 48.234 100.126 48.234 C 96.437 48.234 93.546 45.28 93.546 41.508 C 93.546 37.735 96.437 34.782 100.126 34.782 C 101.938 34.782 103.611 35.474 104.839 36.733 C 106.06 37.985 106.731 39.679 106.731 41.508 C 106.731 43.021 106.284 44.43 105.436 45.588 L 102.61 42.978 L 102.573 42.944 Z M 126.446 32.839 L 126.396 32.839 L 126.396 43.475 C 126.396 46.454 124.736 48.234 121.953 48.234 C 119.17 48.234 117.509 46.454 117.509 43.475 L 117.509 32.839 L 115.154 32.839 L 115.154 43.425 C 115.154 45.528 115.81 47.306 117.051 48.568 C 118.271 49.81 119.967 50.467 121.954 50.467 C 123.941 50.467 125.636 49.81 126.858 48.568 C 128.099 47.306 128.754 45.528 128.754 43.425 L 128.754 32.839 L 126.447 32.839 Z M 142.274 32.868 L 142.262 32.839 L 140.329 32.839 L 140.316 32.868 L 132.691 50.108 L 132.661 50.176 L 135.097 50.176 L 135.109 50.147 L 137.306 45.149 L 145.28 45.149 L 147.477 50.147 L 147.489 50.176 L 149.95 50.176 L 149.919 50.108 L 142.271 32.868 Z M 144.341 43.013 L 138.225 43.013 L 141.283 36.068 Z M 167.493 32.839 L 167.444 32.839 L 167.444 46.174 L 157.042 32.858 L 157.027 32.839 L 154.988 32.839 L 154.988 50.176 L 157.344 50.176 L 157.344 36.841 L 167.746 50.158 L 167.761 50.176 L 169.776 50.176 L 169.776 32.839 Z M 175.004 32.839 L 174.955 32.839 L 174.955 35.072 L 180.322 35.072 L 180.322 50.176 L 182.629 50.176 L 182.629 35.072 L 187.995 35.072 L 187.995 32.839 Z M 204.342 32.839 L 204.293 32.839 L 204.293 43.475 C 204.293 46.454 202.632 48.234 199.849 48.234 C 197.066 48.234 195.406 46.454 195.406 43.475 L 195.406 32.839 L 193.051 32.839 L 193.051 43.425 C 193.051 45.528 193.706 47.306 194.947 48.568 C 196.167 49.81 197.864 50.467 199.849 50.467 C 201.835 50.467 203.532 49.81 204.753 48.568 C 205.993 47.306 206.649 45.528 206.649 43.425 L 206.649 32.839 Z M 230.59 32.839 L 228.526 32.839 L 228.513 32.859 L 222.14 41.401 L 215.77 32.859 L 215.755 32.839 L 213.618 32.839 L 213.618 50.176 L 215.973 50.176 L 215.973 36.87 L 222.102 45.106 L 222.14 45.158 L 222.179 45.106 L 228.308 36.87 L 228.308 50.176 L 230.64 50.176 L 230.64 32.839 Z M 45.813 80.057 C 24.413 79.923 13.948 65.945 9.822 51.714 C 4.422 33.093 16.218 19.53 16.388 19.37 C 16.388 19.37 15.001 21.168 12.864 26.981 C 10.999 32.057 10.782 38.215 11.088 41.919 C 12.176 55.108 17.847 62.657 25.024 68.991 C 29.857 73.254 39.004 77.006 47.515 76.52 C 61.215 75.737 71.53 63.727 73.585 53.884 C 77.216 36.498 65.943 22.932 56.87 16.998 C 43.801 8.453 14.676 7.603 6.779 28.348 C -2.579 52.931 17.605 70.44 17.605 70.44 C 4.716 62.172 -3.795 46.852 1.696 30.349 C 11.09 2.122 47.001 1.213 64.349 17.212 C 74.319 26.409 80.433 40.286 77.318 54.264 C 73.468 71.535 59.885 80.148 45.814 80.059 Z" fill="var(--token-b988cbfe-ec0d-40b2-b684-cfe47edca353, rgb(245, 245, 245)) /* {&quot;name&quot;:&quot;Background&quot;} */"/><path d="M 39.61 43.113 C 39.587 43.142 37.352 46.128 35.642 47.707 C 35.056 48.249 34.48 48.423 34.104 48.172 C 33.715 47.914 33.63 47.253 33.892 46.528 C 34.023 46.167 34.437 45.248 34.96 44.084 C 36.039 41.688 37.669 38.066 38.2 36.216 C 38.608 34.8 38.328 33.529 37.469 32.898 C 36.91 32.487 35.63 32.022 33.349 33.529 C 31.933 34.463 31.011 35.374 29.729 37.166 C 30.164 35.787 30.395 34.237 29.693 33.335 C 29.339 32.879 28.851 32.616 28.282 32.575 C 27.431 32.513 26.456 32.939 25.613 33.747 C 24.186 35.114 21.862 39.214 21.765 39.388 L 21.702 39.501 L 22.207 39.775 L 22.271 39.687 C 22.271 39.687 23.778 37.66 24.797 36.302 C 25.87 34.872 27.114 34.234 27.966 34.675 C 28.636 35.022 28.616 36.091 27.906 37.948 C 27.471 39.085 22.547 49.641 22.498 49.747 L 22.413 49.927 L 24.415 49.927 L 24.451 49.856 C 24.479 49.799 27.303 44.144 29.062 41.437 C 31.94 37.007 33.007 35.931 34.181 35.31 C 34.903 34.928 35.508 34.831 35.841 35.048 C 36.085 35.206 36.193 35.542 36.159 36.044 C 36.105 36.855 35.091 39.062 34.018 41.397 C 33.087 43.424 32.125 45.519 31.566 47.144 C 30.905 49.073 31.559 49.842 32.007 50.13 C 32.293 50.313 32.642 50.401 33.025 50.401 C 33.895 50.401 34.936 49.95 35.779 49.145 C 38.074 46.956 40.109 43.479 40.129 43.444 L 40.19 43.338 L 39.676 43.024 L 39.607 43.116 Z M 59.73 43.122 L 59.665 43.21 C 59.665 43.21 58.158 45.237 57.139 46.595 C 56.066 48.024 54.823 48.663 53.97 48.221 C 53.301 47.875 53.321 46.805 54.03 44.949 C 54.466 43.812 59.389 33.256 59.439 33.15 L 59.523 32.97 L 57.521 32.97 L 57.486 33.041 C 57.458 33.098 54.634 38.753 52.874 41.46 C 49.996 45.891 48.929 46.966 47.755 47.587 C 47.033 47.969 46.428 48.066 46.096 47.849 C 45.851 47.69 45.743 47.355 45.777 46.853 C 45.831 46.042 46.845 43.836 47.918 41.5 C 48.849 39.473 49.813 37.378 50.37 35.753 C 51.032 33.824 50.378 33.055 49.93 32.767 C 48.996 32.168 47.373 32.591 46.156 33.752 C 43.861 35.941 41.826 39.419 41.806 39.453 L 41.745 39.559 L 42.26 39.873 L 42.33 39.781 C 42.353 39.752 44.588 36.766 46.297 35.186 C 46.884 34.645 47.46 34.471 47.835 34.722 C 48.225 34.98 48.309 35.64 48.048 36.365 C 47.917 36.727 47.503 37.646 46.979 38.811 C 45.9 41.208 44.272 44.828 43.739 46.678 C 43.332 48.094 43.612 49.367 44.471 49.996 C 44.738 50.192 45.169 50.401 45.796 50.401 C 46.481 50.401 47.398 50.152 48.589 49.365 C 50.005 48.431 50.927 47.52 52.209 45.728 C 51.774 47.107 51.543 48.657 52.245 49.559 C 52.599 50.015 53.087 50.278 53.658 50.319 C 54.513 50.381 55.483 49.955 56.327 49.146 C 57.753 47.78 60.077 43.679 60.176 43.506 L 60.239 43.393 L 59.734 43.119 Z M 53.504 5.125 C 39.057 0.296 25.881 4.784 25.881 4.784 C 31.96 2.109 40.587 -2.647 54.82 1.865 C 68.164 6.097 72.634 19.005 73.059 22.05 C 73.059 22.05 67.73 9.881 53.504 5.125 Z M 33.155 70.2 C 33.155 70.2 45.271 72.774 56.513 65.645 C 70.324 56.887 69.876 41.261 69.876 41.261 C 69.879 41.443 74.01 59.014 59.176 68.255 C 50.643 73.571 40.937 73.848 33.155 70.2 Z" fill="var(--token-b988cbfe-ec0d-40b2-b684-cfe47edca353, rgb(245, 245, 245)) /* {&quot;name&quot;:&quot;Background&quot;} */"/></g></svg>
