<svg width="103" height="86" viewBox="0 0 103 86" fill="none" xmlns="http://www.w3.org/2000/svg">
<g id="Mark" clip-path="url(#clip0_3817_5999)">
<path id="Vector" d="M93.235 19.48C98.6256 19.48 103 15.1182 103 9.73998C103 4.36176 98.6256 0 93.235 0C87.8444 0 83.4702 4.36176 83.4702 9.73998C83.4702 15.1182 87.8444 19.48 93.235 19.48Z" fill="#7BF179"/>
<path id="Vector_2" d="M93.235 41.7133C98.6256 41.7133 103 37.3516 103 31.9734C103 26.5952 98.6256 22.2334 93.235 22.2334C87.8444 22.2334 83.4702 26.5952 83.4702 31.9734C83.4702 37.3516 87.8444 41.7133 93.235 41.7133Z" fill="white"/>
<path id="Vector_3" d="M93.235 63.831C98.6256 63.831 103 59.4693 103 54.0911C103 48.7128 98.6256 44.3511 93.235 44.3511C87.8444 44.3511 83.4702 48.7128 83.4702 54.0911C83.4702 59.4693 87.8444 63.831 93.235 63.831Z" fill="white"/>
<path id="Vector_4" d="M54.1501 63.831C59.5406 63.831 63.9149 59.4693 63.9149 54.0911C63.9149 48.7128 59.5406 44.3511 54.1501 44.3511C48.7595 44.3511 44.3853 48.7128 44.3853 54.0911C44.3853 59.4693 48.7595 63.831 54.1501 63.831Z" fill="white"/>
<path id="Vector_5" d="M9.7648 41.7133C15.1554 41.7133 19.5296 37.3516 19.5296 31.9734C19.5296 26.5952 15.1554 22.2334 9.7648 22.2334C4.37422 22.2334 0 26.5952 0 31.9734C0 37.3516 4.37422 41.7133 9.7648 41.7133Z" fill="white"/>
<path id="Vector_6" d="M93.235 86C98.6256 86 103 81.6382 103 76.26C103 70.8818 98.6256 66.52 93.235 66.52C87.8444 66.52 83.4702 70.8818 83.4702 76.26C83.4702 81.6382 87.8444 86 93.235 86Z" fill="white"/>
<path id="Vector_7" d="M63.9727 31.9475C63.9727 27.7272 61.2646 24.1761 57.5079 22.7929C54.4202 21.6542 49.1712 23.2561 44.9513 19.0359C40.7315 14.8157 42.3332 9.56611 41.2011 6.48457C39.8116 2.72754 36.2608 0.0126953 32.0409 0.0126953C29.3199 0.0126953 26.927 1.10635 25.1322 2.8948C23.3375 4.68325 22.2568 7.10216 22.2568 9.7977C22.2568 14.0179 24.965 17.5691 28.7217 18.9523C31.8094 20.0909 37.0584 18.4891 41.2783 22.7093C45.5045 26.9359 43.8964 32.1791 45.0285 35.2606C46.4115 39.0176 49.9624 41.726 54.1822 41.726C56.8775 41.726 59.3026 40.6324 61.0845 38.8439C62.8663 37.0619 63.9663 34.6366 63.9663 31.941L63.9727 31.9475Z" fill="white"/>
<path id="Vector_8" d="M41.7158 76.215C41.7158 71.9947 39.0077 68.4436 35.251 67.0604C32.1633 65.9217 26.9142 67.5236 22.6944 63.3034C18.4681 59.0767 20.0763 53.8336 18.9441 50.7521C17.5611 46.995 14.0103 44.2866 9.79045 44.2866C7.06943 44.2866 4.67647 45.3803 2.88175 47.1687C1.09347 48.9572 0.00634766 51.3761 0.00634766 54.0716C0.00634766 58.2919 2.7145 61.843 6.47119 63.2262C9.55887 64.3649 14.8079 62.763 19.0278 66.9832C23.254 71.2099 21.6459 76.453 22.778 79.5345C24.161 83.2916 27.7119 86 31.9317 86C34.627 86 37.0521 84.9063 38.834 83.1179C40.6158 81.3358 41.7158 78.9105 41.7158 76.215Z" fill="white"/>
</g>
<defs>
<clipPath id="clip0_3817_5999">
<rect width="103" height="86" fill="white"/>
</clipPath>
</defs>
</svg>