<svg width="134" height="38" viewBox="0 0 134 38" fill="none" xmlns="http://www.w3.org/2000/svg">
<g clip-path="url(#clip0_2678_4556)">
<path d="M5.13742 25.1857C6.27938 25.1857 7.20453 26.1059 7.20453 27.2412C7.20453 28.3766 6.27938 29.2968 5.13742 29.2968C3.99546 29.2968 3.07031 28.3766 3.07031 27.2412C3.07031 26.1059 3.99546 25.1857 5.13742 25.1857ZM5.13742 20.2157C6.27938 20.2157 7.20453 21.1359 7.20453 22.2712C7.20453 23.4066 6.27938 24.3267 5.13742 24.3267C3.99546 24.3267 3.07031 23.4066 3.07031 22.2712C3.07031 21.1359 3.99546 20.2157 5.13742 20.2157ZM5.13742 15.2473C6.27938 15.2473 7.20453 16.1675 7.20453 17.3029C7.20453 18.4382 6.27938 19.3584 5.13742 19.3584C3.99546 19.3584 3.07031 18.4366 3.07031 17.3012C3.07031 16.1659 3.99546 15.2457 5.13742 15.2457V15.2473ZM5.13742 10.2773C6.27938 10.2773 7.20453 11.1975 7.20453 12.3329C7.20453 13.4682 6.27938 14.3884 5.13742 14.3884C3.99546 14.3884 3.07031 13.4682 3.07031 12.3329C3.07031 11.1975 3.99546 10.2773 5.13742 10.2773Z" fill="url(#paint0_linear_2678_4556)"/>
<path d="M54.7252 20.971C54.7252 22.0203 54.4405 22.8644 53.8778 23.4833C53.3101 24.0775 52.5422 24.3787 51.5939 24.3787C50.9269 24.3787 50.3476 24.2364 49.8693 23.9534C49.3877 23.6704 49.0154 23.2682 48.7555 22.7485C48.5354 22.2504 48.4229 21.6512 48.4229 20.9677V10.2383H42.8984V21.0488C42.8984 22.6426 43.2692 24.0792 44.0007 25.3154C44.7305 26.5269 45.755 27.5001 47.0409 28.2051C48.3583 28.8886 49.8892 29.2362 51.5939 29.2362C53.2985 29.2362 54.8145 28.8903 56.1038 28.2084C57.393 27.5001 58.4175 26.5253 59.1473 25.3171C59.8789 24.0792 60.2496 22.631 60.2496 21.0108V10.2383H54.7252V20.971Z" fill="white"/>
<path d="M68.6471 17.6807H80.9869V13.0185H68.6471V6.86852H82.1619V2.05078H62.9688V29.2344H82.3572V24.3786H68.6471V17.6807Z" fill="white"/>
<path d="M112.385 12.17L111.988 11.791C111.49 11.3144 110.904 10.9155 110.245 10.6044C109.264 10.1261 108.138 9.88281 106.9 9.88281C105.202 9.88281 103.663 10.3065 102.326 11.139C101.008 11.9764 99.9409 13.1333 99.1564 14.5748C98.3951 16.0229 98.0078 17.6994 98.0078 19.558C98.0078 21.4166 98.3934 23.0915 99.1547 24.538C99.9409 25.9828 101.007 27.1396 102.322 27.9754C103.661 28.8095 105.2 29.2332 106.899 29.2332C108.136 29.2332 109.275 28.9899 110.283 28.5116C110.932 28.2038 111.504 27.8165 111.986 27.3631L112.382 26.9907V28.8426H117.789V10.2751H112.383V12.17H112.385ZM111.701 22.5751H111.751L111.38 22.9707C110.556 23.8511 109.457 24.298 108.115 24.298C107.264 24.298 106.486 24.0894 105.801 23.6773C105.114 23.2636 104.572 22.6943 104.188 21.9826C103.805 21.2743 103.612 20.4583 103.612 19.5613C103.612 18.6643 103.81 17.7987 104.191 17.0937C104.603 16.3804 105.146 15.8243 105.801 15.442C106.488 15.0299 107.279 14.8214 108.155 14.8214C109.03 14.8214 109.813 15.0316 110.462 15.4387C111.154 15.8276 111.686 16.3887 112.041 17.0987C112.423 17.807 112.617 18.6362 112.617 19.5597C112.617 20.7298 112.309 21.741 111.701 22.5751Z" fill="white"/>
<path d="M97.9069 10.6894C97.2631 10.4164 96.4902 10.2773 95.6081 10.2773C93.5956 10.2773 92.0068 10.8715 90.8814 12.0449L90.4776 12.4669V10.6679H84.9531V29.2355H90.4776V19.0125C90.4776 17.7266 90.7887 16.7501 91.4044 16.108C92.0482 15.436 92.9088 15.0951 93.963 15.0951C94.4877 15.0951 94.966 15.1795 95.3814 15.3466C95.6462 15.4526 95.8878 15.5899 96.1029 15.7587C96.2585 15.3318 96.4356 14.9279 96.6326 14.5556L96.8229 14.6979L96.6309 14.5556C97.3674 13.2018 98.1965 12.1707 99.1581 11.4094C98.789 11.0966 98.4034 10.8765 97.9019 10.6911L97.9069 10.6894Z" fill="white"/>
<path d="M25.9635 0.351562C17.8473 0.351562 11.2422 6.95506 11.2422 15.0729C11.2422 18.5832 12.4967 21.9809 14.7756 24.6438C17.0298 27.277 20.1445 29.0362 23.5439 29.5989L23.7408 29.632V36.363H40.6385V30.9941H29.6939V29.3192L29.866 29.2713C36.1534 27.5467 40.6021 21.7856 40.6865 15.2649V15.0712C40.6865 6.95506 34.0814 0.351562 25.9635 0.351562ZM25.9635 23.7005C21.207 23.7005 17.3376 19.8311 17.3376 15.0746C17.3376 10.318 21.207 6.44863 25.9635 6.44863C30.72 6.44863 34.5895 10.318 34.5895 15.0746C34.5895 19.8311 30.72 23.7005 25.9635 23.7005Z" fill="white"/>
<path d="M124.384 25.1377C125.519 25.1377 126.439 26.0579 126.439 27.1932C126.439 28.3286 125.519 29.2488 124.384 29.2488C123.248 29.2488 122.328 28.3286 122.328 27.1932C122.328 26.0579 123.248 25.1377 124.384 25.1377ZM128.081 21.4222C129.216 21.4222 130.136 22.3424 130.136 23.4777C130.136 24.6131 129.216 25.5332 128.081 25.5332C126.946 25.5332 126.025 24.6131 126.025 23.4777C126.025 22.3424 126.946 21.4222 128.081 21.4222ZM131.778 17.7067C132.914 17.7067 133.834 18.6269 133.834 19.7622C133.834 20.8976 132.914 21.8177 131.778 21.8177C130.643 21.8177 129.723 20.8976 129.723 19.7622C129.723 18.6269 130.643 17.7067 131.778 17.7067ZM128.106 13.9928C129.241 13.9928 130.161 14.913 130.161 16.0484C130.161 17.1837 129.241 18.1039 128.106 18.1039C126.97 18.1039 126.05 17.1837 126.05 16.0484C126.05 14.913 126.97 13.9928 128.106 13.9928ZM124.408 10.2773C125.544 10.2773 126.464 11.1975 126.464 12.3329C126.464 13.4682 125.544 14.3884 124.408 14.3884C123.273 14.3884 122.353 13.4682 122.353 12.3329C122.353 11.1975 123.273 10.2773 124.408 10.2773Z" fill="url(#paint1_linear_2678_4556)"/>
</g>
<defs>
<linearGradient id="paint0_linear_2678_4556" x1="10.5261" y1="18.1105" x2="-0.219853" y2="21.4553" gradientUnits="userSpaceOnUse">
<stop stop-color="#7F3EFF"/>
<stop offset="1" stop-color="#FA82EC"/>
</linearGradient>
<linearGradient id="paint1_linear_2678_4556" x1="116.929" y1="30.8194" x2="129.554" y2="14.1153" gradientUnits="userSpaceOnUse">
<stop stop-color="#7F3EFF"/>
<stop offset="0.52" stop-color="#FA82EC"/>
<stop offset="0.9" stop-color="#FF7C24"/>
</linearGradient>
<clipPath id="clip0_2678_4556">
<rect width="133.229" height="37.5688" fill="white" transform="translate(0.542969 0.351562)"/>
</clipPath>
</defs>
</svg>
